<svg height="512pt" viewBox="-2 0 512 512" width="512pt" xmlns="http://www.w3.org/2000/svg"><path d="M127.34 404.86v75.68a31.56 31.56 0 01-31.46 31.45h-3.21a31.54 31.54 0 01-31.45-31.45v-75.68a31.54 31.54 0 0131.45-31.46h3.2a31.54 31.54 0 0131.46 31.46zm0 0M443.2 404.86v75.68a31.52 31.52 0 01-17.43 28.12c-7.22 3.64-13.07 3.33-17.23 3.33a31.55 31.55 0 01-31.47-31.45v-75.68a31.55 31.55 0 0131.47-31.46h3.2a31.52 31.52 0 0131.45 31.46zm0 0" fill="#4e5a61"/><path d="M127.34 404.86v75.68a31.53 31.53 0 01-17.43 28.12 31.5 31.5 0 01-17.43-28.12v-75.68a31.5 31.5 0 0117.43-28.13 31.54 31.54 0 0117.43 28.13zm0 0M443.2 404.86v75.68a31.52 31.52 0 01-17.43 28.12 31.51 31.51 0 01-17.43-28.12v-75.68a31.52 31.52 0 0117.43-28.13 31.52 31.52 0 0117.43 28.13zm0 0" fill="#5f6c75"/><path d="M61.22 462.84h66.12v15.63H61.22zm0 0M377.08 462.84h66.12v15.63h-66.12zm0 0" fill="#a2abb8"/><g fill="#4e5a61"><path d="M28.19 270.93h69.16c13.44 0 24.44-11 24.44-24.44 0-13.45-11-24.45-24.44-24.45H28.19c-13.45 0-24.45 11-24.45 24.45 0 13.44 11 24.44 24.45 24.44zm0 0M407.06 270.93h69.17c13.44 0 24.44-11 24.44-24.44 0-13.45-11-24.45-24.44-24.45h-69.17c-13.44 0-24.44 11-24.44 24.45 0 13.44 11 24.44 24.44 24.44zm0 0"/><path d="M335.42 117.78H169.18a68 68 0 00-63.22 42.95L57.5 283.1h389.62l-48.47-122.36a68 68 0 00-63.22-42.95zm0 0"/><path d="M483.1 334.45v90.82H22.29v-90.82a70 70 0 0170-70H413.1a70 70 0 0170 70zm0 0"/></g><path d="M483.1 334.45v90.82H53.55v-90.82a70 70 0 0170-70H413.1a70 70 0 0170 70zm0 0" fill="#5f6c75"/><path d="M504.41 402.21v19.49a9.04 9.04 0 01-9.01 9.01H9.02A9.04 9.04 0 010 421.7V402.2a9.04 9.04 0 019.02-9.01H495.4a9.04 9.04 0 019.01 9.01zm0 0" fill="#909ba6"/><path d="M504.41 402.21v9.58H25.43a9.03 9.03 0 01-9.02-9.01v-9.58H495.4a9.04 9.04 0 019.01 9.01zm0 0" fill="#a2abb8"/><path d="M61.22 462.84h31.26v15.63H61.22zm0 0M377.07 462.84h31.27v15.63h-31.27zm0 0" fill="#7e8b96"/><path d="M137.06 339.54a28.65 28.65 0 11-57.3 0 28.65 28.65 0 0157.3 0zm0 0M424.67 339.54a28.65 28.65 0 11-57.3 0 28.65 28.65 0 0157.3 0zm0 0" fill="#ffa90b"/><path d="M137.06 339.54c0 11.34-6.6 21.15-16.15 25.78a28.65 28.65 0 010-51.58 28.66 28.66 0 0116.15 25.8zm0 0M424.67 339.54c0 11.34-6.6 21.15-16.15 25.78a28.65 28.65 0 010-51.58 28.66 28.66 0 0116.15 25.8zm0 0" fill="#ffc14f"/><path d="M330.88 383.82v56.27c0 6.34-5.13 11.46-11.46 11.46H185a11.46 11.46 0 01-11.47-11.46v-56.27c0-6.34 5.13-11.46 11.47-11.46h134.42c6.33 0 11.46 5.12 11.46 11.46zm0 0" fill="#c2eaf2"/><path d="M330.88 383.82v37.52H218.34a11.46 11.46 0 01-11.46-11.47v-37.51h112.54c6.33 0 11.46 5.12 11.46 11.46zm0 0" fill="#def4f8"/><path d="M377.46 243.4H127.83c-10.03 0-16.9-10.22-13.21-19.63L128 189.68a72.14 72.14 0 0146.36-42.83c6.53-1.96 13.42-3 20.46-3h115.65c29.48 0 55.97 18.17 66.83 45.83l10.03 25.58 3.35 8.51c3.7 9.41-3.18 19.62-13.22 19.62zm0 0" fill="#c2eaf2"/><path d="M387.33 215.26H166.4c-10.04 0-16.9-10.22-13.21-19.62l13.37-34.09a73 73 0 017.8-14.7c6.54-1.96 13.43-3 20.47-3h115.65c29.48 0 55.97 18.17 66.83 45.83zm0 0" fill="#def4f8"/><path d="M499.73 170.13l-45.9 13.64a12.28 12.28 0 00-6.18 19.2l29.18 38.28c7.37 9.66-2.28 23.08-13.67 18.99l-45.07-16.2c-8.02-2.88-16.41 3.28-16.18 11.87l.64 23.16.68 25.12c.34 12.19-15.28 17.31-22.1 7.25l-27.05-39.84a12.05 12.05 0 00-20 0l-27.05 39.84c-6.83 10.06-22.44 4.94-22.1-7.25l1.32-48.28c.23-8.6-8.15-14.75-16.18-11.86l-45.08 16.19c-11.38 4.09-21.04-9.33-13.67-18.99l29.19-38.27c5.2-6.82 1.99-16.77-6.18-19.2l-45.9-13.65c-11.59-3.45-11.59-20.02 0-23.46l45.9-13.66a12.27 12.27 0 006.18-19.2l-29.19-38.27c-7.37-9.66 2.29-23.08 13.67-18.99l34.56 12.42 10.52 3.78c8.03 2.88 16.42-3.27 16.18-11.87l-1.32-48.28c-.34-12.2 15.27-17.32 22.1-7.25l27.05 39.84c4.81 7.1 15.18 7.1 20 0l27.04-39.84c6.83-10.07 22.45-4.95 22.11 7.25l-1.32 48.28c-.23 8.6 8.16 14.75 16.18 11.87l45.07-16.2c11.4-4.09 21.04 9.33 13.67 19l-29.18 38.27c-5.2 6.8-1.99 16.77 6.17 19.19l45.91 13.66c11.59 3.44 11.59 20.01 0 23.46zm0 0" fill="#f44545"/><path d="M499.73 170.13l-45.9 13.64a12.28 12.28 0 00-6.18 19.2l29.18 38.28c7.37 9.66-2.28 23.08-13.67 18.99l-45.07-16.2c-8.02-2.88-16.41 3.28-16.18 11.87l.64 23.16c-83.7-10.85-148.25-80.08-148.25-163.86 0-15.16 1.8-30.76 5.25-46.24l10.52 3.78c8.03 2.88 16.41-3.27 16.18-11.87l-1.32-48.28c-.34-12.2 15.27-17.32 22.1-7.25l27.05 39.85c4.81 7.09 15.18 7.09 20 0l27.04-39.85c6.83-10.07 22.45-4.95 22.11 7.25l-1.32 48.28c-.23 8.6 8.16 14.75 16.18 11.87l45.07-16.2c11.4-4.09 21.04 9.33 13.67 19l-29.18 38.27c-5.2 6.8-1.99 16.77 6.17 19.19l45.91 13.66c11.59 3.44 11.59 20.01 0 23.46zm0 0" fill="#fb5858"/><path d="M366.08 90.48v91.4a21.9 21.9 0 01-8.3 17.18 22 22 0 01-35.7-17.19V90.48a22 22 0 0144 0zm0 0M359.59 235.74a15.52 15.52 0 11-31.05 0 15.52 15.52 0 0131.05 0zm0 0" fill="#ffc14f"/><path d="M359.59 235.74a15.52 15.52 0 01-7.35 13.2 15.5 15.5 0 010-26.4 15.46 15.46 0 017.35 13.2zm0 0M366.08 90.48v91.4a21.9 21.9 0 01-8.3 17.18 22 22 0 01-13.13-20.13v-91.4c0-6.96 3.24-13.17 8.3-17.18 2.5 1.1 4.77 2.67 6.68 4.58a21.88 21.88 0 016.45 15.55zm0 0" fill="#ffcd71"/></svg>