<svg xmlns="http://www.w3.org/2000/svg" viewBox="0 0 511.3 511.3"><path d="M264.5 259.8h-17.8a8.7 8.7 0 00-8.7 8.4l-8.4 234.4h52l-8.4-234.4c-.1-4.7-4-8.4-8.7-8.4z" fill="#7f5b53"/><g fill="#805333"><path d="M307.7 494H134a8.7 8.7 0 100 17.3h173.6a8.7 8.7 0 100-17.4zM377 494h-34.6a8.7 8.7 0 100 17.3H377a8.7 8.7 0 100-17.4z"/></g><path d="M481.2 259.6A138.8 138.8 0 01255.6 368a138.8 138.8 0 11-129.7-240.4 138.8 138.8 0 01277.1 7.2 138.7 138.7 0 0178.2 124.8z" fill="#4fba6f"/><g fill="#c03a2b"><circle cx="108.1" cy="294.3" r="26"/><circle cx="155.8" cy="203.2" r="21.7"/><circle cx="220.9" cy="303" r="17.4"/><circle cx="403.1" cy="224.9" r="26"/><circle cx="359.7" cy="337.7" r="26"/><circle cx="255.6" cy="51.4" r="17.4"/><circle cx="290.3" cy="181.5" r="17.4"/></g><path d="M316 270.7c-6.3 51.8-39.6 94.2-54 102.2l-6.4-4.9a155.1 155.1 0 0043-98.4 8.8 8.8 0 0115.2-5.2c1.6 1.8 2.3 4 2.1 6.3z" fill="#4c8056"/><g fill="#e64c3c"><path d="M113.3 290.2a10.5 10.5 0 11-21 0 10.5 10.5 0 0121 0z"/><circle cx="355.4" cy="332.3" r="10.5"/><path d="M409.8 219a10.5 10.5 0 11-21 0 10.5 10.5 0 0121 0z"/><circle cx="150.8" cy="198.8" r="9.5"/><circle cx="288.3" cy="178.5" r="8.7"/><circle cx="253.6" cy="48.3" r="8.7"/><circle cx="217.2" cy="299.9" r="8.7"/></g></svg>