<svg xmlns="http://www.w3.org/2000/svg" viewBox="0 0 513 513" width="512" height="512"><path d="M511 71c-4-27-20-48-41-60-43-25-98-4-127 46l-3 4 127 113c11-9 21-14 29-27 13-24 19-51 15-76z" fill="#32393f"/><path d="M170 57C141 7 84-14 41 11A84 84 0 001 71c-7 41 19 84 51 110L172 61l-2-4z" fill="#575f64"/><path d="M391 210l-33 236-16 34-11 32-18-32H199l-18 32-11-32-16-34-33-236 44-161a241 241 0 01183 0l43 161z" fill="#ececf1"/><path d="M391 210l-33 236-16 34-11 32-18-32h-57V30c32 0 63 7 92 19l43 161z" fill="#d3d3d8"/><path d="M97 104l-2-4c-5-9-11-11-14-11V59c16 0 30 9 40 26l4 8-28 11z" fill="#32393f"/><path d="M416 104l-28-12 4-7c10-19 26-27 38-27v30c-1 0-7 3-12 12l-2 4z" fill="#24292d"/><path d="M331 512H181l17-55c12-23 34-37 58-37s46 14 57 35l18 57z" fill="#7c8388"/><path d="M331 512h-75v-92c24 0 46 14 57 35l18 57zM374 62c-8-5-17-9-27-13l-37 88a292 292 0 0035 291l13 18 116-278c-22-45-57-82-100-106z" fill="#575f64"/><path fill="#24292d" d="M331 240h30v30h-30z"/><path d="M138 62c8-5 17-9 27-13l37 88a292 292 0 01-35 291l-13 18L38 168c22-45 57-82 100-106z" fill="#7c8388"/><path fill="#32393f" d="M151 240h30v30h-30z"/><path d="M479 177l-5-9c-58 57-96 135-109 228l-7 50c58-117 133-167 154-186l-33-83z" fill="#d3d3d8"/><path d="M33 177l5-9c58 57 96 135 109 228l7 50C96 329 21 279 0 260l33-83z" fill="#ececf1"/></svg>