<svg height="512" width="512" xmlns="http://www.w3.org/2000/svg"><path d="M251 364h227a95 95 0 00-61-150c-6-1-10-6-12-11a56 56 0 00-72-36c-5 2-10 1-15-2-15-12-33-21-54-24h-16c-64 0-104 52-101 116 3 61 44 107 104 107z" fill="#aedb81"/><path d="M168 257c-3-58 40-108 96-116l-16-1c-64 0-115 53-112 117 3 61 55 107 115 107h32c-60 0-112-46-115-107z" fill="#95cc81"/><g fill="#d19a6e"><path d="M421 370l-3-1c-4-1-6-6-4-10l20-46a8 8 0 1115 7l-20 45c-2 3-5 5-8 5zM390 263c-2-3-7-4-11-1l-24 18-11-31a8 8 0 10-16 6l40 112a8 8 0 1016-6l-20-54c-2-7 0-14 6-18l19-15c3-2 4-7 1-11zM283 204c-4-1-9 1-11 5l-6 18-18-22a8 8 0 00-12 10l18 22c3 4 4 10 3 16l-41 108a8 8 0 0016 6l56-152c1-4-1-9-5-11z"/></g><path d="M288 334a81 81 0 00-93-73c-5 1-11 0-14-4a96 96 0 00-87-27c-40 7-62 40-68 80-2 19 8 37 15 52l228 2 19-24v-6z" fill="#95cc81"/><path d="M72 340c-13 0-24-11-24-24 0-36 18-68 46-86a96 96 0 00-70 132l260 2c3-8 4-16 4-24z" fill="#7dbd80"/><path d="M120 282a8 8 0 10-16 4l10 32-32-10a8 8 0 10-4 16l33 10c6 2 9 6 11 11l6 21a8 8 0 1016-4zM212 301c-4-2-9-1-11 3l-32 56a8 8 0 1014 8l32-56c2-4 1-9-3-11z" fill="#b57f5f"/><path d="M504 372H8a8 8 0 110-16h496a8 8 0 110 16z" fill="#95cc81"/></svg>