<svg height="512pt" viewBox="0 0 512 512" width="512pt" xmlns="http://www.w3.org/2000/svg"><path d="M63 176h30v58H63zm0 0" fill="#804231"/><path d="M78 176h15v58H78zm0 0" fill="#582b1f"/><path d="M124 109v39a46 46 0 01-92 0v-39a46 46 0 0192 0zm0 0" fill="#7fdf6d"/><path d="M124 109v39c0 26-21 46-46 46V63c25 0 46 20 46 46zm0 0" fill="#00b564"/><path d="M180 176h30v58h-30zm0 0" fill="#804231"/><path d="M195 176h15v58h-15zm0 0" fill="#582b1f"/><path d="M241 109v39a46 46 0 01-92 0v-39a46 46 0 0192 0zm0 0" fill="#7fdf6d"/><path d="M241 109v39c0 26-21 46-46 46V63c25 0 46 20 46 46zm0 0" fill="#00b564"/><path d="M0 226h512v286H0zm0 0" fill="#ffec96"/><path d="M272 226h240v286H272zm0 0" fill="#ffc472"/><path d="M250 226l-42 286h-30l42-286zm0 0M174 226L71 512H40l102-286zm0 0" fill="#c2715a"/><path d="M325 226l43 286h-31l-43-286zm0 0M506 512h-32L371 226h32zm0 0" fill="#af5f49"/><path d="M479 53a53 53 0 11-106 0 53 53 0 01106 0zm0 0" fill="#f8bd2d"/><path d="M479 53c0 29-24 53-53 53V0c29 0 53 24 53 53zm0 0" fill="#fd9d28"/></svg>