<svg height="512" width="512" xmlns="http://www.w3.org/2000/svg"><path d="M475.8 296H426l-59 72.3h108.8a36.2 36.2 0 000-72.4z" fill="#ffddce"/><path d="M512 332.1c0 20-16.2 36.2-36.2 36.2H367l20.5-25.2h88.3c15.6 0 28.8-9.8 34-23.6a36 36 0 012.2 12.6z" fill="#ffcbbe"/><path d="M470.6 223.6h-49.8l-59 72.3h108.8a36.2 36.2 0 000-72.3z" fill="#ffddce"/><path d="M506.8 259.8c0 20-16.2 36.1-36.2 36.1H361.8l20.5-25h88.3c15.6 0 28.8-9.9 34-23.7a36 36 0 012.2 12.6z" fill="#ffcbbe"/><path d="M444.6 151.3h-49.8l-59.1 72.3h108.9a36.2 36.2 0 000-72.3z" fill="#ffddce"/><path d="M480.7 187.5c0 20-16.2 36.1-36.1 36.1h-109l20.6-25h88.4c15.5 0 28.8-9.9 33.9-23.7a36 36 0 012.2 12.6z" fill="#ffcbbe"/><path d="M315 440.4H147l-73.5-63.8-17.1-73 31.2-86.2 34.3-80.8c10-23.3 28-42.2 51-53.1l63-30a41.3 41.3 0 0157 24.4 41.4 41.4 0 01-4.4 35l-26 41L301.3 365l13 71z" fill="#ffddce"/><path d="M314.2 436.2l-2.4 4.2H147.1l-24.6-92.2c33.3 14.8 115.2 45 178.7 16.9 4.7-2 9.3-4.5 13.7-7.2 53.4-33 25.4 30-.7 78.3zM293 77.9c-10.1-16.3-53.5 1.9-81.8 16.9-26 13.7-95.5 102.2-103.3 198.5l-20.2-75.9 34.3-80.8c10-23.3 28-42.2 51-53.1l63-30a41.3 41.3 0 0157 24.4z" fill="#ffcbbe"/><path d="M352.8 78l54.5 17.6-19.3 59.6-54.4-17.6z" fill="#ffd064"/><path d="M417.8 116.8c-29-8.6-57.8-17.9-86.3-28-11.5-4-18-16.5-14.2-28.2l.1-.4a22.8 22.8 0 0128.1-14.6c29 8.5 57.8 17.8 86.3 28 11.6 4 18 16.5 14.2 28.2v.4a22.8 22.8 0 01-28.2 14.6z" fill="#f6e266"/><path d="M369.8 101.9c-12.8-4.2-25.6-8.5-38.3-13-11.5-4.1-18-16.6-14.2-28.3l.1-.4a22.8 22.8 0 0128.1-14.6c13 3.8 25.8 7.8 38.7 11.9a23.6 23.6 0 00-26.5 15.7l-.1.5a23.6 23.6 0 0012.2 28.2z" fill="#ffd064"/><path d="M423.8 368.1H374l-59 72.3h108.8a36.2 36.2 0 000-72.3z" fill="#ffddce"/><path d="M460 404.3c0 20-16.2 36.1-36.2 36.1H314.9l20.6-25.1h88.3c15.5 0 28.8-9.8 34-23.6a36 36 0 012.2 12.6z" fill="#ffcbbe"/><circle cx="314.9" cy="279.8" fill="#f6e266" r="160.7"/><path d="M325.2 440.1a160.7 160.7 0 110-320.7 160.7 160.7 0 000 320.7z" fill="#ffd064"/><circle cx="314.9" cy="279.8" fill="#d3effb" r="122.8"/><path d="M336.4 400.8a122.8 122.8 0 110-242 122.8 122.8 0 000 242z" fill="#9dc6fb"/><path d="M315 295.4c-8.7 0-15.7-7-15.7-15.6v-40a15.6 15.6 0 0131.3 0v40c0 8.6-7 15.6-15.7 15.6z" fill="#2b4d66"/><g fill="#698ed5"><path d="M315 193.6a7.7 7.7 0 01-7.8-7.7v-24.7a7.7 7.7 0 1115.5 0v24.7c0 4.2-3.5 7.7-7.8 7.7zM315 406a7.7 7.7 0 01-7.8-7.6v-24.7a7.7 7.7 0 1115.5 0v24.7c0 4.2-3.5 7.7-7.8 7.7zM433.5 287.5h-24.7a7.7 7.7 0 110-15.5h24.7a7.7 7.7 0 110 15.5zM221 287.5h-24.7a7.7 7.7 0 110-15.5H221a7.7 7.7 0 110 15.5zM405 235.5a7.7 7.7 0 01-3.8-14.4l12.6-7.3a7.7 7.7 0 117.7 13.4l-12.6 7.2c-1.2.7-2.6 1-3.9 1zM212.2 346.8a7.7 7.7 0 01-3.8-14.4L221 325a7.7 7.7 0 017.7 13.4l-12.6 7.3c-1.2.7-2.6 1-3.9 1z"/><g><path d="M367 197.4c-1.4 0-2.7-.3-4-1a7.7 7.7 0 01-2.7-10.6l7.2-12.6a7.7 7.7 0 1113.4 7.7l-7.3 12.6a7.7 7.7 0 01-6.7 3.9zM255.6 390.2a7.7 7.7 0 01-6.7-11.6l7.3-12.6a7.7 7.7 0 1113.4 7.7l-7.3 12.6a7.7 7.7 0 01-6.7 3.9z"/></g><g><path d="M263 197.4a7.7 7.7 0 01-6.8-3.9L249 181a7.7 7.7 0 1113.4-7.7l7.3 12.6a7.7 7.7 0 01-6.7 11.6zM374.2 390.2a7.7 7.7 0 01-6.7-3.9l-7.2-12.6a7.7 7.7 0 1113.3-7.7l7.3 12.6a7.7 7.7 0 01-6.7 11.6z"/></g><g><path d="M224.8 235.5c-1.3 0-2.6-.4-3.8-1l-12.6-7.3a7.7 7.7 0 017.7-13.4l12.6 7.3a7.7 7.7 0 01-3.9 14.4zM417.6 346.8c-1.3 0-2.6-.3-3.8-1l-12.6-7.3a7.7 7.7 0 017.7-13.4l12.6 7.3a7.7 7.7 0 01-3.9 14.4z"/></g></g><path d="M315 410.3c-72 0-130.6-58.6-130.6-130.5S243 149.2 315 149.2s130.6 58.6 130.6 130.6-58.6 130.5-130.6 130.5zm0-245.6c-63.5 0-115.1 51.6-115.1 115s51.6 115.1 115 115.1c63.5 0 115.1-51.6 115.1-115s-51.6-115.1-115-115.1z" fill="#ffd064"/><path d="M147.1 440.4l-87.7 27-37.8-142-21.6-81 87.7-27 21.6 81z" fill="#dd636e"/><path d="M109.3 298.4l-87.7 27-21.6-81 87.7-27z" fill="#cb5769"/></svg>