<svg height="512pt" viewBox="0 0 512 512" width="512pt" xmlns="http://www.w3.org/2000/svg"><path d="M81 75.1a7.5 7.5 0 01-7.5-7.5V19.8a7.5 7.5 0 0115 0v47.8c0 4.2-3.4 7.5-7.5 7.5zm0 0" fill="#c9f0ff"/><path d="M113 49.3H39.9a5.1 5.1 0 00-5.2 5.1v57h83.6v-57c0-2.8-2.3-5.1-5.1-5.1zm0 0" fill="#fa0"/><path d="M118.2 54.4v57h-18v-57c0-2.8-2.4-5.1-5.2-5.1h18c2.9 0 5.2 2.3 5.2 5.1zm0 0" fill="#ff9500"/><path d="M131.7 97.1H21.1a5.1 5.1 0 00-5.1 5.2v53.6h120.9v-53.6c0-2.9-2.3-5.2-5.2-5.2zm0 0" fill="#ffcd6b"/><path d="M136.9 102.3v53.6h-18v-53.6c0-2.9-2.3-5.2-5.2-5.2h18c2.9 0 5.2 2.3 5.2 5.2zm0 0" fill="#ffc143"/><path d="M352 1.7a5.1 5.1 0 00-7.5 0l-52 56.3V73h111.2V58zm0 0" fill="#ea4444"/><path d="M152.8 511.2H0V150c0-2.8 2.3-5.1 5.1-5.1h142.6c2.8 0 5.1 2.3 5.1 5.1zm0 0" fill="#fa0"/><path d="M83.3 170h-44a7.5 7.5 0 100 15h44a7.5 7.5 0 100-15zm0 0M83.3 208h-44a7.5 7.5 0 100 15h44a7.5 7.5 0 100-15zm0 0M83.3 246h-44a7.5 7.5 0 100 15h44a7.5 7.5 0 100-15zm0 0M83.3 286.2h-44a7.5 7.5 0 100 15h44a7.5 7.5 0 100-15zm0 0M83.3 324.2h-44a7.5 7.5 0 000 15h44a7.5 7.5 0 100-15zm0 0M83.3 362.2h-44a7.5 7.5 0 100 15h44a7.5 7.5 0 100-15zm0 0M83.3 399h-44a7.5 7.5 0 100 15h44a7.5 7.5 0 100-15zm0 0" fill="#ffcd6b"/><path d="M152.8 150v361.2h-23.1V150c0-2.8-2.3-5.1-5.2-5.1h23.2c2.8 0 5.1 2.3 5.1 5.1zm0 0" fill="#ff9500"/><path d="M512 511.2H403.7V85.5h100c4.6 0 8.3 3.7 8.3 8.2zm0 0" fill="#c9f0ff"/><path d="M512 511.2h-22.6V85.5h14.4c4.5 0 8.2 3.7 8.2 8.2zm0 0" fill="#9ae7fd"/><path d="M419 242.4v268.8h-23.5V242.4c0-2.8-2.3-5.1-5.1-5.1h23.5c2.8 0 5.1 2.3 5.1 5.1zm0 0" fill="#d93131"/><path d="M404.1 253.8H292.4V58h111.7zm0 0" fill="#fab2b2"/><path d="M404.1 253.8h-22V58h22zm0 0" fill="#f89696"/><path d="M403.7 58H382L338 8.6l6.5-7c2-2.2 5.5-2.2 7.6 0zm0 0" fill="#d93131"/><path d="M474 124h-21.6a7.7 7.7 0 010-15.5H474a7.7 7.7 0 110 15.5zm0 0M474 173.2h-21.6a7.7 7.7 0 010-15.4H474a7.7 7.7 0 110 15.4zm0 0M474 222.4h-21.6a7.7 7.7 0 010-15.4H474a7.7 7.7 0 110 15.4zm0 0M474 271.6h-21.6a7.7 7.7 0 010-15.4H474a7.7 7.7 0 110 15.4zm0 0M474 320.9h-21.6a7.7 7.7 0 010-15.5H474a7.7 7.7 0 110 15.5zm0 0M474 370h-21.6a7.7 7.7 0 010-15.3H474a7.7 7.7 0 110 15.4zm0 0M474 419.3h-21.6a7.7 7.7 0 010-15.4H474a7.7 7.7 0 110 15.4zm0 0M69.5 511.2v-222a7 7 0 018.2-6.8l152.7 27.5a7 7 0 015.7 6.8v194.5zm0 0" fill="#0573cf"/><path d="M236.1 316.8v194.4h-16.9V312a7 7 0 00-1.5-4.4l12.7 2.3a7 7 0 015.7 6.9zm0 0" fill="#005aaf"/><path d="M192.5 511.2h-79.4v-78.5c0-20.9 17-37.8 37.8-37.8h3.8c21 0 37.8 17 37.8 37.8zm0 0" fill="#c9f0ff"/><path d="M192.5 432.7v78.5h-15.4v-78.5a37.8 37.8 0 00-32-37.4c2-.3 3.8-.4 5.8-.4h3.8c21 0 37.8 17 37.8 37.8zm0 0" fill="#9ae7fd"/><path d="M230.8 62.5a15.7 15.7 0 10-3-31.2 30.7 30.7 0 10-60.9 6.1 15.7 15.7 0 00-28.4 9.4c0 8.6 7 15.7 15.8 15.7h76.5zm0 0" fill="#83afe4"/><path d="M246.5 46.8c0 7.1-4.7 13.1-11.2 15l.3-3c0-6.7-4.5-12.9-10.9-15-3.3-1-6 0-8-3.2-1.5-2.4-1.1-5.7-2.1-8.2a30.7 30.7 0 00-44.8-14.5 30.6 30.6 0 0158 13.4l3-.3c8.7 0 15.7 7 15.7 15.8zm0 0" fill="#5290d9"/><path d="M192.8 219.8a11.1 11.1 0 112.1-22 21.7 21.7 0 1143 4.3 11.1 11.1 0 0120.1 6.6c0 6.2-5 11.1-11.1 11.1zm0 0" fill="#83afe4"/><path d="M258 207.5c.4 4.2-1.6 8.4-5.2 10.6.9-.5-1-4-1.4-4.5-1-1.3-2.4-2.3-3.9-3-2.4-1.2-4.8-1-7.3-.4-1.6.3-3.1.6-4.7.4-2.4-.2-5-1.3-6.3-3.3-2.7-4.3-.2-10-3-14.2-2.5-3.6-7.4-5.9-11.6-6.5a21.7 21.7 0 00-19 6.4 21.7 21.7 0 0142.3 9.1 11.1 11.1 0 0120 5.4zm0 0" fill="#5290d9"/><path d="M419 511.2H277.6V242.4c0-2.8 2.3-5 5.1-5h131.2c2.8 0 5.1 2.2 5.1 5v268.8zm0 0" fill="#ea4444"/><path d="M376.6 511.2h-51.8v-56.5c0-2.8 2.3-5.1 5.1-5.1h41.6c2.8 0 5.1 2.3 5.1 5.1zm0 0" fill="#ececf1"/><path d="M376.6 454.7v56.5h-18.4v-56.5c0-2.8-2.3-5.1-5.2-5.1h18.5c2.8 0 5.1 2.3 5.1 5.1zm0 0" fill="#d3d3d8"/><path d="M375.8 118.7a7.5 7.5 0 01-7.5-7.5V98.5a7.5 7.5 0 1115 0v12.7c0 4.1-3.4 7.5-7.5 7.5zm0 0M375.8 161.4a7.5 7.5 0 01-7.5-7.5v-12.6a7.5 7.5 0 1115 0v12.6c0 4.2-3.4 7.5-7.5 7.5zm0 0M375.8 204.2a7.5 7.5 0 01-7.5-7.5V184a7.5 7.5 0 1115 0v12.7c0 4.1-3.4 7.5-7.5 7.5zm0 0M345.7 118.7a7.5 7.5 0 01-7.5-7.5V98.5a7.5 7.5 0 1115 0v12.7c0 4.1-3.4 7.5-7.5 7.5zm0 0M345.7 161.4a7.5 7.5 0 01-7.5-7.5v-12.6a7.5 7.5 0 1115 0v12.6c0 4.2-3.4 7.5-7.5 7.5zm0 0M345.7 204.2a7.5 7.5 0 01-7.5-7.5V184a7.5 7.5 0 1115 0v12.7c0 4.1-3.4 7.5-7.5 7.5zm0 0M315.6 118.7a7.5 7.5 0 01-7.5-7.5V98.5a7.5 7.5 0 1115 0v12.7c0 4.1-3.4 7.5-7.5 7.5zm0 0M315.6 161.4a7.5 7.5 0 01-7.5-7.5v-12.6a7.5 7.5 0 1115 0v12.6c0 4.2-3.4 7.5-7.5 7.5zm0 0M315.6 204.2a7.5 7.5 0 01-7.5-7.5V184a7.5 7.5 0 1115 0v12.7c0 4.1-3.4 7.5-7.5 7.5zm0 0" fill="#ea4444"/><g fill="#fab2b2"><path d="M375.6 287.1a7.5 7.5 0 01-7.5-7.4v-16.8a7.5 7.5 0 1115 0v16.8c0 4-3.3 7.4-7.5 7.4zm0 0M375.6 334a7.5 7.5 0 01-7.5-7.5v-16.8a7.5 7.5 0 0115 0v16.8c0 4.1-3.3 7.5-7.5 7.5zm0 0M375.6 379.8a7.5 7.5 0 01-7.5-7.4v-16.8a7.5 7.5 0 0115 0v16.8c0 4-3.3 7.4-7.5 7.4zm0 0M375.6 426.4a7.5 7.5 0 01-7.5-7.5v-16.8a7.5 7.5 0 1115 0V419c0 4.2-3.3 7.5-7.5 7.5zm0 0M345.5 287.1a7.5 7.5 0 01-7.5-7.4v-16.8a7.5 7.5 0 1115 0v16.8c0 4-3.4 7.4-7.5 7.4zm0 0M345.5 334a7.5 7.5 0 01-7.5-7.5v-16.8a7.5 7.5 0 0115 0v16.8c0 4.1-3.4 7.5-7.5 7.5zm0 0M345.5 379.8a7.5 7.5 0 01-7.5-7.4v-16.8a7.5 7.5 0 0115 0v16.8c0 4-3.4 7.4-7.5 7.4zm0 0M345.5 426.4a7.5 7.5 0 01-7.5-7.5v-16.8a7.5 7.5 0 1115 0V419c0 4.2-3.4 7.5-7.5 7.5zm0 0M315.7 287.1a7.5 7.5 0 01-7.5-7.4v-16.8a7.5 7.5 0 1115 0v16.8c0 4-3.3 7.4-7.5 7.4zm0 0M315.7 334a7.5 7.5 0 01-7.5-7.5v-16.8a7.5 7.5 0 0115 0v16.8c0 4.1-3.3 7.5-7.5 7.5zm0 0M315.7 379.8a7.5 7.5 0 01-7.5-7.4v-16.8a7.5 7.5 0 0115 0v16.8c0 4-3.3 7.4-7.5 7.4zm0 0M315.7 426.4a7.5 7.5 0 01-7.5-7.5v-16.8a7.5 7.5 0 1115 0V419c0 4.2-3.3 7.5-7.5 7.5zm0 0"/></g><path d="M120.7 338.7a7.5 7.5 0 01-7.5-7.5v-10.6a7.5 7.5 0 1115 0v10.6c0 4.1-3.4 7.5-7.5 7.5zm0 0M155.7 338.7a7.5 7.5 0 01-7.5-7.5v-10.6a7.5 7.5 0 0115 0v10.6c0 4.1-3.3 7.5-7.5 7.5zm0 0M190.8 338.7a7.5 7.5 0 01-7.5-7.5v-10.6a7.5 7.5 0 1115 0v10.6c0 4.1-3.4 7.5-7.5 7.5zm0 0M120.7 379.1a7.5 7.5 0 01-7.5-7.5v-10.5a7.5 7.5 0 0115 0v10.5c0 4.2-3.4 7.5-7.5 7.5zm0 0M155.7 379.1a7.5 7.5 0 01-7.5-7.5v-10.5a7.5 7.5 0 0115 0v10.5c0 4.2-3.3 7.5-7.5 7.5zm0 0M190.8 379.1a7.5 7.5 0 01-7.5-7.5v-10.5a7.5 7.5 0 0115 0v10.5c0 4.2-3.4 7.5-7.5 7.5zm0 0" fill="#c9f0ff"/><path d="M123.6 170h-11.3a7.5 7.5 0 000 15h11.3a7.5 7.5 0 100-15zm0 0M123.6 208h-11.3a7.5 7.5 0 000 15h11.3a7.5 7.5 0 100-15zm0 0M123.6 246h-11.3a7.5 7.5 0 000 15h11.3a7.5 7.5 0 100-15zm0 0" fill="#ffcd6b"/></svg>