<svg xmlns="http://www.w3.org/2000/svg" viewBox="0 0 512 512"><g fill="#ffcba8"><path d="M402 203v35h-44c5-20 23-35 44-35zM411 291v18h-53v-62-9h53c14 0 26 12 26 26v1c0 14-12 26-26 26z"/></g><path d="M402 168a44 44 0 110-89 44 44 0 010 89z" fill="#cce3eb"/><g fill="#f5f5f5"><path d="M260 97v18c0 9-7 17-17 17h-9c-10 0-18-8-18-17V97h44zM199 97v18c0 9-8 17-18 17h-9c-10 0-17-8-17-17V97h44z"/></g><path fill="#a55f39" d="M280 61l7 36H128l7-36 2 1h141z"/><path fill="#6f3114" d="M269 0l11 61-2 1H137l-2-1 11-61h44l17 18 18-18z"/><g fill="#ffcba8"><path d="M128 97v35h-18c-9 0-17-8-17-17 0-10 8-18 17-18h18zM305 97c9 0 17 8 17 18 0 9-8 17-17 17h-18V97h18zM260 115V97h27v88a62 62 0 01-62 62h-35l-17-2c-27-8-45-32-45-60V97h27v18c0 9 7 17 17 17h9c10 0 18-8 18-17V97h17v18c0 9 8 17 18 17h9c10 0 17-8 17-17z"/><path d="M243 265v9l-36 35-35-32v-30l1-2 17 2h35l17-2 1 2v18z"/></g><path fill="#6f3114" d="M216 371l27 141h-71l27-141-27-27 35-35 36 35z"/><g fill="#f5f5f5"><path d="M243 274v70l-36-35zM207 309l-35 35v-67zM199 371l-27 141V344z"/></g><path fill="#a55f39" d="M243 433v79l-27-141 27-27z"/><g fill="#6f3114"><path d="M128 274l-35-53 44-1 1-1c8 13 21 22 35 26l-1 2v186l-62-89 18-70zM287 276l18 68-62 89V247l-1-2c14-4 27-13 35-26l1 1 44 1-35 53v2z"/></g><g fill="#a55f39"><path d="M128 274l-18 70-17 9v159H57V344c0-39 32-70 71-70z"/><path d="M172 433v79H93V353l17-9zM411 309v150c0 29-24 53-53 53V309h53zM322 512h-79v-79l62-89-18-68c41 8 71 44 71 86v150h-36z"/></g><path fill="#6f3114" d="M358 335h27v18h-27z"/><g fill="#874a29"><path d="M84 353h18v159H84zM313 353h18v159h-18z"/></g><g fill="#454545"><path d="M181 141h-9c-14 0-26-12-26-26V97h17v18c0 5 4 9 9 9h9c5 0 9-4 9-9V97h17v18c0 14-11 26-26 26zM243 141h-9c-15 0-27-12-27-26V97h18v18c0 5 4 9 9 9h9c5 0 9-4 9-9V97h17v18c0 14-12 26-26 26z"/></g><path fill="#6f3114" d="M57 88h291v18H57z"/><g fill="#454545"><path d="M393 159h18v97h-18z"/><path d="M402 177a53 53 0 01-47-79 53 53 0 1147 79zm-31-70a35 35 0 1062 33 35 35 0 00-62-33z"/></g><path d="M207 222c-12 1-24-4-32-13l12-13c6 6 13 9 20 9 8 0 15-3 21-9l12 13c-8 9-20 14-33 13z" fill="#ebb691"/></svg>