<svg xmlns="http://www.w3.org/2000/svg" width="77.2" height="93.6" viewBox="0 0 20.4 24.8"><path d="M0 24.6v-.2l.2.2v.2l-.2-.2zm13.6-.9h-.2l-.3-.1-.8-.8c-.4-.3-.7-.7-.7-.9l-.1-.2-.8-1.3A7.5 7.5 0 0010 19l-.3-.5c-.8-1-2-3.7-2-4.5 0 0 0-.3-.2-.4-1.2-1.4-1.4-1.7-1.3-2L6 11c-.2-.5.3-1.5.7-1.6.7 0 1.4.4 1.3 1l.2.3.3.4c0 .3 0 .4.4.4.2 0 .2 0 .1.2-.1.1 0 .3.3.8h.3c.2-.3.2-2 0-3l-.2-1.7-.2-1.4C9 6 9 4.2 9.2 4.2V4c0-.3.8-.5 1-.3.5.3.7 1 .7 1.9l.2.8V7c.3.3.4.7.4 2 0 .8.1 1.4.2 1.4l.3.3c0 .2.1.3.3.1.3-.3.5-2.5.2-3-.1-.4 0-1.1.2-1.7.2-.4.3-.8.2-1.3v-1c.1-1 1.5-1.2 1.8-.2l.2 2a97 97 0 000 2.4l-.1 1a1042.4 1042.4 0 01.3 1.4c.1-.2.2-.2 0 0 0 .2.2.1.4-.1l.2-.4v-.2c.1 0 .2-.3.2-.8l.1-1.2a7 7 0 00.3-.5v-.8c0-.7.4-1.5.6-1.3h.2c.1-.2.2-.1.5 0 .3.2.4.4.3 1.5a71.7 71.7 0 00-.1 3.3c-.2 0-.4 1.3-.3 1.4l.2.1v.1l.1-.2c0-.2 0-.2.2-.2.1 0 .2 0 .2-.2 0-.6.5-1.8.7-1.8L19 9l.4-.1c.3 0 .3 0 .2-.4 0-.3.4-1.6.7-1.6.1 0 .2.1 0 .3L20.2 9 20 11l-.3 1c0 .2-.1.5-.3.7-.3.5-.8 1.7-1 2.5l-.4 1v.3l-.1.2-.5 1-.4 1-.1.2-.1.4-.5 2.5v.3l-.2.4-.5.8c-.4.4-.5.5-1.1.5l-.9-.2zM18 10.5v-.2l.1.2v.2c-.2 0-.2-.1-.1-.2zM5.7 8.7V7.6c.1-.2.4.4.4.8 0 0 0 .3.2.4.2.3.2.3 0 .6l-.3.2-.3-1zM17 4.5c-.2-.3.1-1.8.4-1.8.3 0 .3 2 0 2-.1 0-.3 0-.4-.2zm-7.6-1c-.2-.2-.3-1.8 0-2 0-.2.1-.2.2 0V2l.2.8c.2.3.2.5 0 .6-.1.2-.2.2-.4 0zm4.1-1.1s-.1-.1-.2 0c-.2 0-.2-.3-.1-1.1 0-.6.1-.9.3-.9l.2.4v1c.1.5 0 .9-.2.6zM0 .4C0 .2.4 0 .4 0L.3.3 0 .4z" fill="#502d16"/></svg>