<svg height="512" viewBox="0 0 128 128" width="512" xmlns="http://www.w3.org/2000/svg"><path d="M111 43c-19 29-18 79-18 79h14c-2-32 4-79 4-79zM89 26c-17 41-16 96-16 96h14c-2-39 2-96 2-96z" fill="#9adb07"/><g fill="#8ec100"><path d="M59 122c0-38 4-87 20-115-7 54-4 115-4 115zM99 37c-17 36-16 85-16 85h14c-2-35 2-85 2-85zM17 43c19 29 18 79 18 79H21c2-32-4-79-4-79zM39 26c17 41 16 96 16 96H42c1-39-3-96-3-96z"/></g><path d="M50 17c19 44 18 105 18 105H53c2-43-3-105-3-105zM29 37c17 36 16 85 16 85H31c2-35-2-85-2-85z" fill="#9adb07"/><path d="M122 123H7a2 2 0 010-3h115a2 2 0 010 3z" fill="#8ec100"/></svg>