<svg height="511pt" viewBox="1 -62 512 511" width="511pt" xmlns="http://www.w3.org/2000/svg"><path d="M359 387c-14 0-25-11-25-25v-24l50-33v57c0 14-11 25-25 25zm0 0M147 387c-14 0-25-11-25-25v-24l50-34v58c0 14-11 25-25 25zm0 0" fill="#afacb3"/><path d="M441 147l-4 12-51 174-2 5h-50v24a25 25 0 01-7 18 25 25 0 01-43-18v-24H122v24a25 25 0 01-25 25c-14 0-25-11-25-25v-24H24l12-55H0c0-30 37-72 37-72H0c0-41 54-76 54-76l-34-8c19-42 80-59 80-59L63 55c15-39 103-21 103-21L139 7c39-21 94 21 94 21V1c58 0 85 41 85 41V10c49 10 70 70 70 70l23-23c28 28 30 90 30 90zm0 0" fill="#7c4242"/><path d="M438 165l-50 168H73l11-49H52c0-26 33-63 33-63H52c0-36 48-66 48-66l-31-8c17-36 71-51 71-51l-33-11c14-35 91-18 91-18l-24-24c34-19 82 18 82 18V37c51 0 75 36 75 36V46c42 8 61 61 61 61l20-21c19 20 24 58 25 73l1 6zm0 0" fill="#936a60"/><path d="M512 218c-39 0-71-32-71-71l-61 1c-24 0-46 9-62 24-5-3-11-5-18-5a33 33 0 00-11 65v11c0 53 42 95 95 95h8c66 0 120-53 120-120zm0 0" fill="#e6e6e6"/><path d="M384 305v33h-50v24a25 25 0 11-50 0v-24H122v24a25 25 0 11-50 0v-24c10-94 229-47 229-47zm0 0" fill="#c4becc"/><path d="M509 243l-5 18c-17 45-61 77-112 77h-8a95 95 0 01-95-95c0 13 10 26 28 34 17 9 41 15 67 15h8c51 0 95-17 112-40l5-9zm0 0" fill="#c4becc"/><g fill="#4f5263"><path d="M512 218c0 15-3 30-8 43a44 44 0 01-34-57c12 9 26 14 42 14zm0 0M410 238a14 14 0 11-28 0 14 14 0 0128 0zm0 0"/></g></svg>