<svg height="512" viewBox="0 0 60 60" width="512" xmlns="http://www.w3.org/2000/svg"><path d="M30 43a1 1 0 01-1-1v-.8c0-2.4-1-4.7-2.7-6.5l1.4-1.4c1 1 1.7 2 2.3 3.3.6-1.2 1.3-2.3 2.3-3.3l1.4 1.4a9.2 9.2 0 00-2.7 6.5v.8c0 .6-.4 1-1 1zM16 43a1 1 0 01-1-1v-.8c0-2.4-1-4.7-2.7-6.5l1.4-1.4c1 1 1.7 2 2.3 3.3.6-1.2 1.3-2.3 2.3-3.3l1.4 1.4a9.2 9.2 0 00-2.7 6.5v.8c0 .6-.4 1-1 1zM44 43a1 1 0 01-1-1v-.8c0-2.4-1-4.7-2.7-6.5l1.4-1.4c1 1 1.7 2 2.3 3.3.6-1.2 1.3-2.3 2.3-3.3l1.4 1.4a9.2 9.2 0 00-2.7 6.5v.8c0 .6-.4 1-1 1z" fill="#cdf5a0"/><path d="M30 14L19.8 24.2a6 6 0 01-8.6 0l-3.4-3.4a6 6 0 010-8.6L18 2z" fill="#c9c6ca"/><path d="M30 14L19.8 24.2a6 6 0 01-8.6 0l-3.4-3.4a6 6 0 010-8.6L18 2z" fill="#c9c6ca"/><path d="M7 13l3 3c.6.6 1.4.6 2 0 .6-.6 1.4-.6 2 0l2 2c.6.6 1.4.6 2 0 .6-.6 1.4-.6 2 0l3 3-3.2 3.2a6 6 0 01-8.6 0l-3.4-3.4A6 6 0 017 13z" fill="#c4deff"/><path d="M26 18h6l2-2h2v8h-2l-2-2H22" fill="#656365"/><path d="M26 18h6l2-2h2v8h-2l-2-2H22zM16 4l-2.6-2.6a4.8 4.8 0 00-6.8 0L0 8l3 3 5.3-5.3a2.4 2.4 0 013.4 0L13 7z" fill="#656365"/><path d="M55 41c.6 0 1.3-.3 1.7-.7a4.3 4.3 0 00.7-5.3L55 31l-2.4 4a4.3 4.3 0 00.7 5.3c.4.4 1 .7 1.7.7zM43 30c.6 0 1.3-.3 1.7-.7a4.3 4.3 0 00.7-5.3L43 20l-2.4 4a4.3 4.3 0 00.7 5.3c.4.4 1 .7 1.7.7zM53 17c.6 0 1.3-.3 1.7-.7a4.3 4.3 0 00.7-5.3L53 7l-2.4 4a4.3 4.3 0 00.7 5.3c.4.4 1 .7 1.7.7z" fill="#c4deff"/><path d="M21 56H11v-9a5 5 0 0110 0z" fill="#f7931e"/><path d="M14.5 42.3A5 5 0 0011 47v9h7v-9a5 5 0 00-3.5-4.7z" fill="#f9a94b"/><path d="M35 56H25v-9a5 5 0 0110 0z" fill="#f7931e"/><path d="M28.5 42.3A5 5 0 0025 47v9h7v-9a5 5 0 00-3.5-4.7z" fill="#f9a94b"/><path d="M49 56H39v-9a5 5 0 0110 0z" fill="#f7931e"/><path d="M42.5 42.3A5 5 0 0039 47v9h7v-9a5 5 0 00-3.5-4.7z" fill="#f9a94b"/><path d="M55 56a3 3 0 100-6 3 3 0 00-5.2-2 3 3 0 00-.8-1.2V56zM5 56a3 3 0 110-6 3 3 0 015.2-2c.2-.5.4-1 .8-1.2V56z" fill="#cdf5a0"/><path d="M0 56h60v4H0z" fill="#aa8058"/><path d="M0 56h57v4H0z" fill="#e3aa75"/><g fill="#cdf5a0"><path d="M25 47h5v2h-5zM30 51h5v2h-5zM11 47h5v2h-5zM16 51h5v2h-5zM39 47h5v2h-5zM44 51h5v2h-5z"/></g><path d="M14.3 5.7l1.4-1.4 12 12-1.4 1.4z" fill="#c4deff"/></svg>