<svg height="512" width="512" xmlns="http://www.w3.org/2000/svg"><path d="M15 392a15 15 0 01-15-15V211c0-9 7-15 15-15 12 0 25 3 35 9 10-6 21-9 39-9 21 0 49 11 66 31a65 65 0 0134 1 85 85 0 01133 0 66 66 0 0133-1c17-20 45-31 65-31 19 0 30 3 39 9a66 66 0 0139-9c8 1 14 7 14 15v165c0 8-7 15-15 15l-482 1z" fill="#bee75e"/><path d="M498 196a66 66 0 00-39 9c-9-6-20-9-39-9-20 0-48 11-65 31a65 65 0 00-33 1 85 85 0 00-66-32v195h241c8 0 15-7 15-15V211c0-8-6-14-14-15z" fill="#00cb75"/><path d="M497 512H15c-8 0-15-7-15-15V377c0-8 7-15 15-15h482c8 0 15 7 15 15v120c0 8-7 15-15 15z" fill="#6b5c59"/><path d="M497 362H256v150h241c8 0 15-7 15-15V377c0-8-7-15-15-15z" fill="#4f4540"/><path d="M262 452h-16a15 15 0 010-30h16a15 15 0 010 30zM186 452h-16a15 15 0 010-30h16a15 15 0 010 30zM110 452H94a15 15 0 010-30h16a15 15 0 010 30zM34 452H22a15 15 0 010-30h11a15 15 0 011 30z" fill="#fff4f4"/><path d="M338 452h-16a15 15 0 010-30h16a15 15 0 010 30zM414 452h-16a15 15 0 010-30h16a15 15 0 010 30zM490 452h-16a15 15 0 010-30h16a15 15 0 010 30z" fill="#f6efea"/><path d="M451 122a61 61 0 110-122 61 61 0 010 122z" fill="#ffcd00"/><path d="M262 422h-6v30h6a15 15 0 000-30z" fill="#f6efea"/></svg>