<svg xmlns="http://www.w3.org/2000/svg" width="421.7" height="512" viewBox="0 0 112 136"><g transform="matrix(.26458 0 0 .26458 -12 0)"><path d="M467 211a211 211 0 10-313 184c13 8 24 18 32 31l48 74c10 16 34 16 44 0l48-74c8-13 19-23 32-31 65-36 109-105 109-184z" fill="#fb2b3a"/><path d="M467 211c0 79-44 148-109 184-13 8-24 18-32 31l-48 74a26 26 0 01-44 0l-1-1c6-2 12-6 16-12l47-73c9-13 20-24 33-31a211 211 0 00-4-372c82 29 142 107 142 200z" fill="#e41f2d"/><circle cx="256" cy="210.8" fill="#ebebeb" r="150.7"/><path d="M407 211a151 151 0 01-199 143 151 151 0 0071-292c72 11 128 74 128 149z" fill="#d3d1d1"/><path d="M295 293c-7 0-13-6-13-12v-12l25-16v28c0 6-6 12-12 12zm0 0M189 293c-7 0-12-6-12-12v-12l25-17v29c0 6-6 12-13 12zm0 0" fill="#afacb3"/><path d="M335 175l-1 6-26 85-1 3h-25v12a12 12 0 01-3 8 12 12 0 01-22-8v-12h-80v12l-1 3c-1 5-6 9-12 9s-12-6-12-12v-12h-24l6-27h-18c0-15 19-35 19-35h-19c0-20 27-37 27-37l-17-5c10-20 40-28 40-28l-18-7c7-19 51-10 51-10l-14-13c20-11 47 10 47 10v-13c29 0 42 20 42 20v-16c25 5 35 34 35 34l11-11c14 14 15 44 15 44zm0 0" fill="#7c4242"/><path d="M334 184l-25 82H153l5-24h-16c0-13 16-30 16-30h-16c0-18 24-33 24-33l-15-4c8-17 35-25 35-25l-16-5c6-17 45-9 45-9l-12-12c17-9 40 9 40 9v-12c26 0 38 18 38 18v-13c21 4 30 29 30 29l10-9c9 9 12 28 13 35v3zm0 0" fill="#936a60"/><path d="M371 210c-20 0-36-15-36-35l-30 1c-12 0-23 4-31 12a17 17 0 00-25 13c0 8 4 14 11 16v5c0 26 21 47 47 47h4c33 0 60-26 60-59zm0 0" fill="#e6e6e6"/><path d="M307 253v16h-25v12c0 3-1 6-3 8a12 12 0 01-22-8v-12h-80v12c0 6-6 12-13 12-6 0-12-6-12-12v-12c5-46 114-23 114-23zm0 0" fill="#c4becc"/><path d="M369 222l-2 9c-9 22-31 38-56 38h-4c-13 0-25-5-33-14-9-8-14-20-14-33 0 7 5 13 14 17 8 4 20 7 33 7h4c25 0 47-8 56-19l2-5zm0 0" fill="#c4becc"/><g fill="#4f5263"><path d="M371 210c0 8-2 15-4 21a22 22 0 01-17-28c6 5 13 7 21 7zm0 0M320 220c0 4-3 6-7 6s-7-2-7-6 3-7 7-7 7 3 7 7zm0 0"/></g></g></svg>