<svg height="512" viewBox="0 0 24 24" width="512" xmlns="http://www.w3.org/2000/svg"><circle cx="12" cy="12" fill="#ffd54f" r="12"/><ellipse cx="12" cy="17.5" fill="#e53935" rx="3" ry="3.45"/><g fill="#6d4c41"><path d="M8.25 11a.74.74 0 01-.53-.22l-2.5-2.5a.75.75 0 111.06-1.06l2.5 2.5A.75.75 0 018.25 11z"/><path d="M5.75 11a.75.75 0 01-.53-1.28l2.5-2.5a.75.75 0 111.06 1.06l-2.5 2.5a.75.75 0 01-.53.22zM18.25 11a.74.74 0 01-.53-.22l-2.5-2.5a.75.75 0 111.06-1.06l2.5 2.5a.75.75 0 01-.53 1.28z"/><path d="M15.75 11a.75.75 0 01-.53-1.28l2.5-2.5a.75.75 0 111.06 1.06l-2.5 2.5a.75.75 0 01-.53.22z"/></g></svg>