<svg height="512" width="512" xmlns="http://www.w3.org/2000/svg"><path d="M164.97 452.17V512h182.39v-59.9l61.4-61.4-16.03-49.18-283.1 6.45 15.4 73.49" fill="#dd636e"/><g fill="#d82e3d"><path d="M349.9 375.04l-48.58 51.14-45.16-45.7-45.16 45.7-48.57-51.14"/><path d="M248.44 341.98h15.45V512h-15.45zM133.8 327.29s-11.16 58.26 4.33 73.74c0 0 7.88-39.69 15.6-47.4s-19.93-26.34-19.93-26.34"/></g><path d="M412.2 268.67h.22a33.96 33.96 0 000-67.93l-.73.01H100.72l-.73-.01a33.97 33.97 0 000 67.93h.22" fill="#f1b986"/><path d="M404.4 112.06a1532.02 1532.02 0 00-296.38 0 1050.63 1050.63 0 00-6.77 184.27 86.93 86.93 0 0082.8 82.42c48.1 2.27 96.21 2.27 144.32 0a86.93 86.93 0 0082.8-82.42c3.15-61.42.89-122.85-6.78-184.27z" fill="#f1d0a5"/><path d="M256.2 335.26a41.59 41.59 0 01-37.4-23.65 8.63 8.63 0 1115.6-7.4A24.25 24.25 0 00256.2 318c9.28 0 17.84-5.42 21.82-13.8a8.63 8.63 0 1115.59 7.4 41.59 41.59 0 01-37.4 23.66z" fill="#dd636e"/><path d="M108.03 112.05c49.39-4.8 98.79-7.18 148.19-7.18-25.01 0-50.02 2.42-75.03 7.25a2106.25 2106.25 0 00-3.44 186.04c1.05 40.8 15.96 74.08 35.53 81.67-9.74-.26-19.5-.63-29.24-1.09a86.94 86.94 0 01-82.8-82.41 1052.2 1052.2 0 016.79-184.28z" fill="#f1b986"/><path d="M411.7 200.75c-69.62 0-176.57-45.08-222.41-65.97-13.83-6.32-22.1-10.42-22.1-10.42s-26.56 67.86-66.47 76.4c-.24-.02-.48-.02-.72-.02a33.73 33.73 0 00-19.46 6.13C67.38 112.04 52.6 50.43 85.87 31.96c33.26-18.5 56.06 4.3 56.06 4.3s33.3-17.62 79.25-28.29c54.6-12.7 127.04-15.57 182.58 32.6 58.3 50.6 42.56 117.55 7.94 160.18z" fill="#617881"/><path d="M189.29 134.78c-13.83-6.32-22.1-10.42-22.1-10.42s-26.56 67.86-66.47 76.4c-.24-.02-.48-.02-.73-.02a33.73 33.73 0 00-19.45 6.13C67.38 112.04 52.6 50.43 85.87 31.96c33.26-18.5 56.06 4.3 56.06 4.3s33.3-17.62 79.25-28.29c-54.81 13.3-57.42 93.27-31.9 126.8z" fill="#475959"/><path d="M178.48 440.98s-14.42 14.42-30.22 20.45c-5.71 2.17-11.6 3.25-17.05 2.16-58.6-8.22-51.39-101.74-51.39-156.21 0-13.94 53.98 19.9 53.98 19.9s-11.16 58.27 4.33 73.75z" fill="#dd636e"/><path d="M148.26 461.43c-5.71 2.17-11.6 3.25-17.05 2.16-58.6-8.22-51.39-101.74-51.39-156.21a71.56 71.56 0 019.32-35.66l37.95-8.54s-29.8 31.86-29.8 78.1c0 46.26 18.17 110.27 50.97 120.15z" fill="#d82e3d"/><path d="M136.97 230.7l-3.17 96.59-33.3-12.3-20.68-7.62c0-26.6 13.64-45.52 27.6-57.9 14.6-12.95 29.55-18.76 29.55-18.76z" fill="#f1d0a5"/><path d="M381.22 463.6c-20.56 4.1-47.29-22.62-47.29-22.62l40.36-39.95c15.49-15.48 4.32-73.74 4.32-73.74s3.29-4.52 8.24-10.53c15.12-18.33 45.75-50.42 45.75-9.38 0 54.47 7.2 148-51.38 156.21z" fill="#dd636e"/><path d="M374.29 401.03c15.49-15.48 4.32-73.74 4.32-73.74s3.29-4.52 8.24-10.53l11.32 3.32s2.44 76.15-23.89 80.95z" fill="#d82e3d"/><path d="M432.6 307.38l-34.42 12.7-19.57 7.2-3.17-96.57s11.62 4.51 24.38 14.46l.23.19c15.48 12.12 32.54 32.25 32.54 62.01z" fill="#f1d0a5"/><path d="M398.18 320.08l-19.57 7.2-3.17-96.57s11.62 4.51 24.38 14.46l.23.19c-6.86 14.4-14.71 50.07-1.88 74.72z" fill="#f1b986"/><path d="M211.64 247.52h89.14v43.07h-89.14z" fill="#475959"/><path d="M120.68 290.6c0-65.85 47.34-97.67 71.7-97.67s44.1 19.74 44.1 44.1v53.56z" fill="#475959"/><circle cx="178.58" cy="290.59" fill="#617881" r="57.9"/><circle cx="178.58" cy="290.59" fill="#b1e4f9" r="43.07"/><path d="M221.65 290.6a43.07 43.07 0 01-51.52 42.23 43.07 43.07 0 000-84.47 43.07 43.07 0 0151.52 42.24z" fill="#e4f6ff"/><path d="M221.65 290.6a43.07 43.07 0 11-85.45-7.71 43.08 43.08 0 0084.76 0c.45 2.5.7 5.08.7 7.7zM391.73 290.6c0-65.85-47.34-97.67-71.7-97.67s-44.09 19.74-44.09 44.1v53.56z" fill="#475959"/><circle cx="333.84" cy="290.59" fill="#617881" r="57.9"/><circle cx="333.84" cy="290.59" fill="#b1e4f9" r="43.07"/><path d="M376.91 290.6a43.07 43.07 0 01-51.52 42.23 43.07 43.07 0 000-84.47 43.07 43.07 0 0151.52 42.24z" fill="#e4f6ff"/><path d="M376.91 290.6a43.07 43.07 0 11-85.45-7.71 43.08 43.08 0 0084.76 0c.45 2.5.69 5.08.69 7.7z" fill="#475959"/><path d="M100.5 315l-20.68-7.62c0-26.61 13.64-45.53 27.6-57.9 0 0 14 44.6-6.93 65.52z" fill="#f1b986"/></svg>