<svg xmlns="http://www.w3.org/2000/svg" width="512" height="512"><path fill="#3c1b13" d="M356 172l-22-21 66-66-20-19 22-21 40 40z"/><path fill="#663325" d="M155 171L70 85l40-40 22 21-20 19 65 64zM131 245l-6-3-94-42v-55h30v35l86 40zM61 355H31v-55l91-37 12 28-73 29zM80 478l-40-41 72-72 21 21-51 51 20 20z"/><path fill="#3c1b13" d="M381 245l-16-25 6-4 80-36v-35h30v55zM481 355h-30v-35l-72-29 11-28 91 37zM432 478l-22-21 20-20-51-51 21-21 72 72z"/><path d="M256 100c-13 0-25-7-34-20-7-11-11-25-11-40s4-29 11-40l25 17c-4 6-6 14-6 23s2 18 6 24c6 8 12 8 18 0 4-6 6-15 6-24s-2-17-6-23l25-17c7 11 11 25 11 40s-4 29-11 40c-9 13-21 20-34 20z" fill="#663325"/><path d="M290 80c7-11 11-25 11-40s-4-29-11-40l-25 17c4 6 6 14 6 23s-2 18-6 24c-3 4-6 6-9 6v30c13 0 25-7 34-20z" fill="#3c1b13"/><g><path d="M406 340c0 153-115 172-150 172s-150-19-150-172c0-45 16-124 47-185l1 12c12 67 54 113 102 113s90-46 102-114l1-11c31 61 47 140 47 185z" fill="#8c4a37"/></g><g><path d="M359 155l-1 11c-12 68-54 114-102 114s-90-46-102-113l-1-12c25-48 60-85 103-85 44 0 78 37 103 85z" fill="#663325"/></g><path d="M406 340c0-45-16-124-47-185l-1 11c-12 68-54 114-102 114v232c35 0 150-19 150-172z" fill="#663325"/><path d="M358 166l1-11c-25-48-59-85-103-85v210c48 0 90-46 102-114z" fill="#3c1b13"/></svg>