<svg height="512" width="512" xmlns="http://www.w3.org/2000/svg"><path d="M314 257.9H198a16 16 0 00-16 16v61.8a16 16 0 0016 16h116a16 16 0 0016-16v-61.8a16 16 0 00-16-16z" fill="#c69a85"/><path d="M357.3 335.7a16 16 0 00-16-16H170.7a16 16 0 00-2.7 31.7v71.3a16 16 0 0032 0v-71h112V430a16 16 0 1032 0v-78.6a16 16 0 0013.3-15.7z" fill="#9f7766"/><path d="M512 242a81.6 81.6 0 00-65.8 83.6A81.6 81.6 0 10512 473.5z" fill="#9bd65e"/><path d="M512 473.5V410a1443 1443 0 01-86.3-14.7c-16-3-27.3-6.7-35.1-10.6-7.4 31.3 4 64 29.9 83.7l86.1 8c1.9-.9 3.6-1.9 5.4-3z" fill="#91c656"/><path d="M0 391v120.2h512v-64.9A2050.3 2050.3 0 000 391z" fill="#9bd65e"/><path d="M512 242a81.6 81.6 0 00-65.8 83.6 81.8 81.8 0 00-47.7 38.7c4.2 3.7 9.4 4 16-.7 38.2-27.9 40.3-49.8 56.3-22.9 6.5 11 23.4 12.7 41.2 10.7z" fill="#aced70"/><path d="M512 504.6c-60-8-153.2-23.5-223-50.8-111.7-43.5-62.8 16-244.6 22.7-17 .6-31.6.7-44.4.4v34.3h512z" fill="#91c656"/><path d="M0 391v53.7c8.6-2 18.7-5 30.5-9 89.4-30.8 260.8 11.5 295.3-17.1l7.7-6.6A2139.4 2139.4 0 000 391z" fill="#aced70"/><path d="M315.4 148a16 16 0 0016-16 28.7 28.7 0 0145.4-23.4 16 16 0 0024.6-8.5 28.7 28.7 0 0156.2 8.1 16 16 0 0016 16H496a16 16 0 100-32h-8.5a60.7 60.7 0 00-108.7-18 60.8 60.8 0 00-79.4 57.7 16 16 0 0016 16z" fill="#a2d0ff"/><path d="M113.3 432.2a16 16 0 01-16-16V164a16 16 0 0132 0v252.3a16 16 0 01-16 16z" fill="#9f7766"/><path d="M97.3 250.4c1.4-.3 2.9-.7 4.4-1.4 19.7-8.9 22.5-16 27.6-15.2v-69.9c0-.8 3.3 0-31.2-4.8-1 3.3-.8-3-.8 91.3z" fill="#845f52"/><path d="M178.5 69a65.6 65.6 0 10-131.2.3 65.7 65.7 0 1066 108.8 65.7 65.7 0 1065.1-109z" fill="#9bd65e"/><path d="M113.3 178a65.6 65.6 0 00103.4-12.4c-99-33-160-25.8-171.2-1a133 133 0 01-15 22.4c26 17 60.6 13.7 82.8-9z" fill="#91c656"/><path d="M112.9.8a65.7 65.7 0 00-63 47c25.5 6.2 47.7 33 100.8 51.5 23.8 8.3 45.4 4 63.3-4.8A65.8 65.8 0 00178.5 69 65.6 65.6 0 00112.9.8z" fill="#aced70"/><path d="M79.4 10c8.2 25 21.4 46.8 44.2 37.3a195.9 195.9 0 0039.9-22.6A65.6 65.6 0 0079.4 10z" fill="#d3f4ae"/></svg>