<svg xmlns="http://www.w3.org/2000/svg" viewBox="0 0 64 64" width="512" height="512"><path d="M57.8 39h-3v-2h3a2 2 0 002-2V8a3 3 0 00-6 0v3h-2V8a5 5 0 0110 0v27a4 4 0 01-4 4z" fill="#757575"/><path d="M3.5 45.5c-1-1-1.5-2.3-1.5-3.6V41h.9A5.1 5.1 0 018 46.1v.9h-.9c-1.3 0-2.6-.5-3.6-1.5z" fill="#54a330"/><path d="M6 46.1a5.1 5.1 0 00-4-5v.8a5.1 5.1 0 004 5V46z" fill="#70da40"/><path d="M3.5 56.5c-1-1-1.5-2.3-1.5-3.6V52h.9A5.1 5.1 0 018 57.1v.9h-.9c-1.3 0-2.6-.5-3.6-1.5z" fill="#54a330"/><path d="M6 57.1a5.1 5.1 0 00-4-5v.8a5.1 5.1 0 004 5V57z" fill="#70da40"/><path d="M19.5 56.5c-1-1-1.5-2.3-1.5-3.6V52h.9a5.1 5.1 0 015.1 5.1v.9h-.9c-1.3 0-2.6-.5-3.6-1.5z" fill="#54a330"/><path d="M22 57.1a5.1 5.1 0 00-4-5v.8a5.1 5.1 0 004 5V57z" fill="#70da40"/><path d="M35.5 56.5c-1-1-1.5-2.3-1.5-3.6V52h.9a5.1 5.1 0 015.1 5.1v.9h-.9c-1.3 0-2.6-.5-3.6-1.5z" fill="#54a330"/><path d="M38 57.1a5.1 5.1 0 00-4-5v.8a5.1 5.1 0 004 5V57z" fill="#70da40"/><path d="M51.5 56.5c-1-1-1.5-2.3-1.5-3.6V52h.9a5.1 5.1 0 015.1 5.1v.9h-.9c-1.3 0-2.6-.5-3.6-1.5z" fill="#54a330"/><path d="M54 57.1a5.1 5.1 0 00-4-5v.8a5.1 5.1 0 004 5V57z" fill="#70da40"/><path d="M60.5 56.5c1-1 1.5-2.3 1.5-3.6V52h-.9a5.1 5.1 0 00-5.1 5.1v.9h.9c1.3 0 2.6-.5 3.6-1.5z" fill="#54a330"/><path d="M57.5 53.5c-1 1-1.5 2.3-1.5 3.6v.8a5.1 5.1 0 004-5V52c-1 .2-1.8.7-2.5 1.4z" fill="#70da40"/><path d="M44.5 56.5c1-1 1.5-2.3 1.5-3.6V52h-.9a5.1 5.1 0 00-5.1 5.1v.9h.9c1.3 0 2.6-.5 3.6-1.5z" fill="#54a330"/><path d="M41.5 53.5c-1 1-1.5 2.3-1.5 3.6v.8a5.1 5.1 0 004-5V52c-1 .2-1.8.7-2.5 1.4z" fill="#70da40"/><path d="M28.5 56.5c1-1 1.5-2.3 1.5-3.6V52h-.9a5.1 5.1 0 00-5.1 5.1v.9h.9c1.3 0 2.6-.5 3.6-1.5z" fill="#54a330"/><path d="M25.5 53.5c-1 1-1.5 2.3-1.5 3.6v.8a5.1 5.1 0 004-5V52c-1 .2-1.8.7-2.5 1.4z" fill="#70da40"/><path d="M12.5 56.5c1-1 1.5-2.3 1.5-3.6V52h-.9A5.1 5.1 0 008 57.1v.9h.9c1.3 0 2.6-.5 3.6-1.5z" fill="#54a330"/><path d="M9.5 53.5c-1 1-1.5 2.3-1.5 3.6v.8a5.1 5.1 0 004-5V52c-1 .2-1.8.7-2.5 1.4z" fill="#70da40"/><path d="M12.5 45.5c1-1 1.5-2.3 1.5-3.6V41h-.9A5.1 5.1 0 008 46.1v.9h.9c1.3 0 2.6-.5 3.6-1.5z" fill="#54a330"/><path d="M9.5 42.5c-1 1-1.5 2.3-1.5 3.6v.8a5.1 5.1 0 004-5V41c-1 .2-1.8.7-2.5 1.4z" fill="#70da40"/><path fill="#757575" d="M38.8 6V2h6v4"/><path fill="#9c9c9c" d="M38.8 2h3v4h-3zM36.8 10V6h10v4"/><path fill="#bdbdbd" d="M36.8 6h7v4h-7z"/><path fill="#0090b5" d="M20.8 16h4v12h-4z"/><path fill="#00c0f1" d="M20.8 16h2v12h-2z"/><path d="M52.8 48h-22a2 2 0 01-2-2V12c0-1.1.9-2 2-2h22a2 2 0 012 2v34a2 2 0 01-2 2z" fill="#0090b5"/><path d="M51.8 46V12a2 2 0 00-2-2h-19a2 2 0 00-2 2v34c0 1.1.9 2 2 2h19a2 2 0 002-2z" fill="#00c0f1"/><path fill="#9c9c9c" d="M28.8 16h26v26h-26z"/><path fill="#bdbdbd" d="M28.8 16h23v26h-23z"/><circle cx="41.8" cy="29" r="9" fill="#bf9f00"/><ellipse cx="40.3" cy="29" rx="7.5" ry="8.9" fill="#ffd400"/><path d="M40.3 30.5c-1-1-1.5-2.3-1.5-3.6V26h.9a5.1 5.1 0 015.1 5.1v.9h-.9c-1.4 0-2.7-.5-3.6-1.5z" fill="#54a330"/><path d="M42.8 31.1a5.1 5.1 0 00-4-5v.8a5.1 5.1 0 004 5V31z" fill="#70da40"/><path d="M23.8 16h-2V9.4L18 4.6l1.6-1.2 4 5 .2.6v7zM28.8 39h-3a4 4 0 01-4-4v-7h2v7c0 1.1.9 2 2 2h3v2zM47.4 22L34.8 34.6c.4.5.8 1 1.4 1.4l12.6-12.6a9 9 0 00-1.4-1.4z" fill="#757575"/><path fill="#8c6239" d="M23 58h2v4h-2zM39 58h2v4h-2zM55 58h2v4h-2zM7 47h2v15H7z"/><path fill="#757575" d="M4.3 13.3l6-6 1.4 1.4-6 6z"/><path fill="#757575" d="M4.3 8.7l1.4-1.4 6 6-1.4 1.4zM4.3 23.3l6-6 1.4 1.4-6 6z"/><path fill="#757575" d="M4.3 18.7l1.4-1.4 6 6-1.4 1.4zM4.3 33.3l6-6 1.4 1.4-6 6z"/><path fill="#757575" d="M4.3 28.7l1.4-1.4 6 6-1.4 1.4z"/></svg>