<svg height="512" width="512" xmlns="http://www.w3.org/2000/svg"><path d="M0 205v211h512v-38C349 295 186 186 0 205z" fill="#aced70"/><path d="M0 205v38c58 3 162 4 227-5-73-26-148-41-227-33z" fill="#c0f28b"/><path d="M99 293c-24 8-68 6-99 3v90l353-67c5-1-9-21-20-35l-27-13c-46 3-176 10-207 22z" fill="#9bd65e"/><path d="M512 256v255H0v-91c163-83 332-153 512-164z" fill="#9bd65e"/><circle cx="449.2" cy="62.8" fill="#f0a567" r="61.9"/><path d="M499 26a62 62 0 00-101 72c35-62 75-47 101-72z" fill="#fdaa6a"/><path d="M466 3a62 62 0 00-78 49c19-37 62-26 78-49z" fill="#fcbc80"/><path d="M377 312c65-20 108-28 135-31v-25c-94 6-185 28-274 59 28 10 73 17 139-3z" fill="#aced70"/><path d="M512 386c-45 29-99 3-186-17-98-22-213-1-212 0-28 11-90 38-114 51v91h512z" fill="#91c656"/><path d="M0 321v190h512v-38C349 390 180 332 0 321z" fill="#9bd65e"/><path d="M0 321v25c167 19 178 40 294 34-95-32-193-53-294-59z" fill="#aced70"/><path d="M85 451c-41-11-67-20-85-27v87h350l-232-31c-75-9 102 5-33-29z" fill="#91c656"/><path d="M64 123h22c9 0 16-7 16-16a29 29 0 0157-8c3 11 15 15 24 9 19-14 46 0 46 23a16 16 0 0032 0c0-41-41-71-80-58A61 61 0 0072 91h-8a16 16 0 000 32z" fill="#a2d0ff"/></svg>