<svg xmlns="http://www.w3.org/2000/svg" viewBox="0 0 512 512"><path d="M256 430v82a41 41 0 000-82z" fill="#e0230d"/><path d="M256 430c6 0 10 18 10 41s-4 41-10 41a41 41 0 010-82z" fill="#ff5440"/><path d="M380 124C380 55 324 0 256 0l82 103v141l-51 93c51 0 93-42 93-93V124z" fill="#e0230d"/><path d="M349 244V124c0-69-42-124-93-124-68 0-124 55-124 124v61a31 31 0 0062 0v-61a62 62 0 01124 0v120c0 17-14 31-31 31-34 0-62 28-62 62v31c0 17 14 31 31 31s31-14 31-31v-31c35-5 62-45 62-93z" fill="#ff5440"/></svg>