<svg height="512" viewBox="0 0 54 58" width="512" xmlns="http://www.w3.org/2000/svg"><g fill-rule="nonzero" fill="none"><g fill="#a56a43"><path d="M9 5v10H1.1A1 1 0 010 14V6c0-.6.5-1 1.1-1zM9 24v10H1.1A1 1 0 010 33v-8c0-.6.5-1 1.1-1zM9 43v10H1.1A1 1 0 010 52v-8c0-.6.5-1 1.1-1zM54 6v8c0 .6-.5 1-1.1 1H45V5h7.9c.6 0 1 .4 1.1 1zM54 25v8c0 .6-.5 1-1.1 1H45V24h7.9c.6 0 1 .4 1.1 1zM54 44v8c0 .6-.5 1-1.1 1H45V43h7.9c.6 0 1 .4 1.1 1zM14 5h25.8v10H14zM14 24h25.8v10H14zM14.1 43H40v10H14z"/></g><path d="M18 11h-3a1 1 0 010-2h3a1 1 0 010 2zM39 11h-3a1 1 0 010-2h3a1 1 0 010 2zM18 30h-3a1 1 0 010-2h3a1 1 0 010 2zM39 30h-3a1 1 0 010-2h3a1 1 0 010 2zM18 50h-3a1 1 0 010-2h3a1 1 0 010 2zM39 50h-3a1 1 0 010-2h3a1 1 0 010 2z" fill="#603e26"/><rect fill="#bdc3c7" height="58" rx="1" width="7" x="8"/><rect fill="#95a5a5" height="58" rx="1" width="3" x="10"/><rect fill="#bdc3c7" height="58" rx="1" width="7" x="39"/><circle cx="4" cy="10" fill="#bdc3c7" r="1"/><circle cx="4" cy="29" fill="#bdc3c7" r="1"/><circle cx="4" cy="48" fill="#bdc3c7" r="1"/><circle cx="50" cy="10" fill="#bdc3c7" r="1"/><circle cx="50" cy="29" fill="#bdc3c7" r="1"/><circle cx="50" cy="48" fill="#bdc3c7" r="1"/><rect fill="#95a5a5" height="58" rx="1" width="3" x="41"/></g></svg>