<svg height="512" viewBox="0 0 511 511" width="512" xmlns="http://www.w3.org/2000/svg"><path d="M0 230v119h511v-38L235 118c-39-27-92-23-127 10z" fill="#a2d0ff"/><path d="M235 118c-39-27-92-23-127 10l-40 37 43 36 74-31 70 16 42-25z" fill="#e8f3ff"/><path d="M511 311l-138-97c-36-1-131-5-149 6-23 14-97 20-169 4l-42-7-13 13v119h511z" fill="#8bc4ff"/><path d="M177 283c-58-15-117-25-177-29v257h511V203a611 611 0 00-334 80z" fill="#9bd65e"/><path d="M177 283c-58-15-117-25-177-29v36c27 7 62 13 88 10 44-5 100-9 100-9s31 29 92-10c56-37 185-47 231-17v-61a611 611 0 00-334 80z" fill="#aced70"/><path d="M177 283c132 66 133 197 265 228H217c-66-73 1-137-40-228z" fill="#a2d0ff"/><path d="M68 418c-18-20-44-33-68-42v135h156c-25-25-62-64-88-93zM511 340c-17 21-35 54-45 101-6 29-15 54-25 70h70z" fill="#91c656"/><path d="M299 511c-27-52-87-87-109-131-8 43-13 87 27 131z" fill="#b9dcff"/><path d="M113 368l-7 7-7-7a16 16 0 10-23 22l19 19c6 6 16 6 22 0l19-19a16 16 0 00-23-22zM367 323l-7 7-8-7a16 16 0 10-22 22l19 19c6 6 16 6 22 0l19-19a16 16 0 10-23-22z" fill="#71993c"/><path d="M417 259c-9 0-16-8-16-16V111a16 16 0 0132 0v132c0 8-7 16-16 16z" fill="#9f7766"/><path d="M401 198l4-2c20-9 23-16 28-15v-70l-31-5c-1 4-1-3-1 92z" fill="#845f52"/><path d="M463 158h-92l30-147c3-14 29-14 32 0z" fill="#9bd65e"/><path d="M433 11c-3-14-29-14-32 0l-9 44c31 22 37 41 63 63z" fill="#aced70"/><path d="M460 140c-21 1-51 7-85-4l-4 22h92z" fill="#91c656"/></svg>