<svg height="512" width="512" xmlns="http://www.w3.org/2000/svg"><path d="M347 204c-221-76-72-166 3-202V0h-54c-8 0-17 2-24 6-85 41-257 142-118 227 159 98-12 225-101 279h350c46-67 143-240-56-308z" fill="#665e68"/><path d="M53 512h77c92-63 232-188 83-285-124-81 1-176 89-227h-6c-8 0-17 2-24 6-85 41-257 142-118 227 159 98-12 225-101 279z" fill="#554e56"/><path d="M218 71a8 8 0 01-4-14l5-3a8 8 0 018 13l-5 3-4 1z" fill="#dfebfa"/><g fill="#dfebfa"><path d="M291 442a8 8 0 01-5-13l8-9a8 8 0 1112 10l-9 9c-1 2-4 3-6 3zM324 398l-4-1c-3-2-5-6-3-10l6-11a8 8 0 0114 7l-6 12c-2 2-4 3-7 3zM342 347h-1c-4 0-7-4-7-8a79 79 0 000-12 8 8 0 0115-1 90 90 0 010 14c0 4-3 7-7 7zM328 295c-2 0-5-1-6-3l-7-9a8 8 0 0111-10l9 10a8 8 0 01-7 12zM289 258l-5-1-10-6a8 8 0 118-14l11 7a8 8 0 01-4 14zM240 233l-3-1-12-6a8 8 0 118-13l11 6a8 8 0 01-4 14zM194 204l-5-2-9-9a8 8 0 1111-11l8 8a8 8 0 01-5 14zM164 159c-3 0-6-2-7-6a61 61 0 01-1-14 8 8 0 0115 0 41 41 0 001 11 8 8 0 01-8 9zM178 108l-5-1c-3-3-4-8-1-11l8-11a8 8 0 1112 11l-8 9c-1 2-4 3-6 3z"/></g><path d="M256 475a8 8 0 01-5-14l5-4a8 8 0 1110 12l-5 4-5 2z" fill="#dfebfa"/><path d="M365 185C154 120 276 46 354 8c4-2 2-8-2-8h-3c-73 34-232 127-7 204 199 68 102 241 55 308h40c10 0 19-6 24-16 45-92 87-254-96-311z" fill="#ffd301"/><path d="M156 233C53 171 118 99 195 49c-86 48-184 127-69 197 134 82-6 186-109 249-8 4-5 17 4 17h34c89-54 260-181 101-279z" fill="#ffc20c"/></svg>