<svg xmlns="http://www.w3.org/2000/svg" width="512" height="512" viewBox="0 0 135.5 135.5"><path d="M67.7 135.5A67.8 67.8 0 1168-.2a67.8 67.8 0 01-.2 135.7z" fill="#ffca28"/><path d="M91.6 97.5a4 4 0 01-3.4-2 24 24 0 00-40.9 0 4 4 0 11-6.8-4 32 32 0 0154.5 0 4 4 0 01-3.4 6zM42.7 65.6c-7.4 0-14-4.7-16.4-11.7a4 4 0 117.5-2.6 9.4 9.4 0 0017.8 0A4 4 0 1159 54c-2.4 7-9 11.7-16.4 11.7zM92.8 65.6c-7.4 0-14-4.7-16.4-11.7a4 4 0 117.5-2.6 9.4 9.4 0 0017.8 0 4 4 0 017.5 2.6c-2.4 7-9 11.7-16.4 11.7z" fill="#6d4c41"/></svg>