<svg height="512" viewBox="0 0 59 58" width="512" xmlns="http://www.w3.org/2000/svg"><g fill-rule="nonzero" fill="none"><path d="M19 42v6a10 10 0 1020 0c0-4.1 2.7-7.8 6.6-9.1A20 20 0 1019 20z" fill="#fdd7ad"/><path d="M33 34c-.3-.3-.5-.6-.6-1l-.7-1.9c-1-1.5-2.6-2.7-3.6-4.3-1-1.4-1.7-3-2-4.8A13 13 0 1152 20s-1 9-10 9l-.5 1.6a12 12 0 01-1.5 3.2c-.7 1.2-2 2-3.4 2s-2.8-.7-3.7-1.8z" fill="#f9c795"/><g fill="#f09372"><path d="M45 23.4a1 1 0 01-1-1c0-3-1.1-5-3.4-5.9a1 1 0 11.8-1.8c2 .8 4.6 2.8 4.6 7.7 0 .6-.4 1-1 1zM34 16.4a1 1 0 01-.3-2l2.2-.3a1 1 0 01.2 2 13 13 0 00-2.1.3zM35 41a1 1 0 01-.7-.3c-3.5-3.5-9-1.8-9-1.8a1 1 0 01-.6-1.9c.3 0 6.6-2.1 11 2.3A1 1 0 0135 41z"/></g><path d="M9.8 52.3a1 1 0 01-.6-1.7 23.3 23.3 0 000-34.9 1 1 0 011.3-1.4A25.6 25.6 0 0119 33.2c0 7.2-3.1 14-8.5 18.9a1 1 0 01-.7.2z" fill="#ff5364"/><path d="M5.4 48a1 1 0 01-.6-1.7c3.9-3.2 6.1-8 6.2-13.1 0-5.1-2.3-10-6.2-13.2A1 1 0 016 18.5c4.3 3.6 6.8 9 6.9 14.7 0 5.6-2.6 11-7 14.6a1 1 0 01-.6.3z" fill="#ff5364"/><path d="M1 43.8a1 1 0 01-.7-1.7c2.4-2.3 3.7-5.6 3.7-9 0-3.3-1.3-6.5-3.7-8.9a1 1 0 011.4-1.4C4.5 25.5 6 29.3 6 33.2c0 3.9-1.5 7.6-4.3 10.4a1 1 0 01-.7.2z" fill="#ff5364"/></g></svg>