<svg xmlns="http://www.w3.org/2000/svg" viewBox="0 0 512 512"><path d="M283 81l-27 26-27-26A134 134 0 0039 271l27 26 161 162c16 16 42 16 58 0l161-162 27-26A134 134 0 00283 81z" fill="#f288e8"/><path d="M473 81c-42-41-103-50-153-27a321 321 0 01-157 341l64 64c16 16 42 16 58 0l161-162 27-26c52-53 52-138 0-190z" fill="#f27bd2"/><path d="M134 81a94 94 0 00-95 95c0 25 10 49 28 67l188 188h2l188-188a95 95 0 00-135-134l-26 26a39 39 0 01-56 0l-26-26a94 94 0 00-68-28z" fill="#f269a6"/><path d="M445 109a95 95 0 00-120-12 321 321 0 01-128 276l58 58h2l188-188c37-37 37-97 0-134z" fill="#f25490"/></svg>