<svg xmlns="http://www.w3.org/2000/svg" viewBox="0 0 512 512"><linearGradient id="a" gradientUnits="userSpaceOnUse" x1="127.7" y1="296.4" x2="709.5" y2="-285.4" gradientTransform="matrix(1.0039 0 0 -1.0039 0 517)"><stop offset="0" stop-color="#ffb92d"/><stop offset="1" stop-color="#f59500"/></linearGradient><path d="M437 512H75c-56 0-92-58-67-108L189 41a75 75 0 01134 0l181 363a75 75 0 01-67 108z" fill="url(#a)"/><linearGradient id="b" gradientUnits="userSpaceOnUse" x1="205" y1="219.2" x2="380.3" y2="43.8" gradientTransform="matrix(1.0039 0 0 -1.0039 0 517)"><stop offset="0" stop-color="#ffb92d"/><stop offset="1" stop-color="#f59500"/></linearGradient><path d="M437 512H75c-56 0-92-58-67-108L189 41a75 75 0 01134 0l181 363a75 75 0 01-67 108z" fill="url(#b)"/><linearGradient id="c" gradientUnits="userSpaceOnUse" x1="19.9" y1="259.5" x2="489.8" y2="259.5" gradientTransform="matrix(1.0039 0 0 -1.0039 0 517)"><stop offset="0" stop-color="#fff465"/><stop offset="1" stop-color="#ffe600"/></linearGradient><path d="M486 413L305 50c-10-19-28-30-49-30s-39 11-49 30L26 413a54 54 0 0049 79h362c19 0 37-10 47-26s11-36 2-53zm-19 42c-7 11-18 17-30 17H75c-12 0-23-6-30-17-6-10-6-22-1-33L225 59c6-12 17-19 31-19s25 7 31 19l181 363c5 11 5 23-1 33z" fill="url(#c)"/><linearGradient id="d" gradientUnits="userSpaceOnUse" x1="421.3" y1="104.5" x2="137.2" y2="388.5" gradientTransform="matrix(1.0039 0 0 -1.0039 0 517)"><stop offset="0" stop-color="#be3f45" stop-opacity="0"/><stop offset="1" stop-color="#be3f45"/></linearGradient><path d="M437 512h-28L244 347c-5-3-8-7-8-13l-2-88-3-83c0-7 2-13 7-17 5-3 11-5 19-5s13 2 17 6l203 203 27 54a75 75 0 01-67 108z" fill="url(#d)"/><linearGradient id="e" gradientUnits="userSpaceOnUse" x1="329.3" y1="33.3" x2="236.7" y2="126" gradientTransform="matrix(1.0039 0 0 -1.0039 0 517)"><stop offset="0" stop-color="#be3f45" stop-opacity="0"/><stop offset="1" stop-color="#be3f45"/></linearGradient><path d="M397 512h-75l-85-86c-6-5-9-11-9-17 0-7 3-13 9-18 5-5 12-7 20-7s14 2 19 7l121 121z" fill="url(#e)"/><path d="M228 409c0-7 3-13 9-18 5-5 12-7 20-7s14 2 19 7 8 11 8 18c0 6-3 12-8 17s-11 8-19 8-15-3-20-8c-6-5-9-11-9-17zm3-246c0-7 2-13 7-17 5-3 11-5 19-5s13 2 17 6c3 4 5 9 5 16l-1 83-1 88c0 5-2 9-7 11-4 3-8 4-13 4-14 0-21-5-21-15l-2-88-3-83z" fill="#fff"/></svg>